<svg width="20" height="20" viewBox="0 0 20 20" fill="none" xmlns="http://www.w3.org/2000/svg">
<path d="M13 15.625C12.9264 17.4769 11.3831 19.0494 9.31564 18.9988C8.83464 18.9871 8.24014 18.8194 7.05112 18.484C4.18961 17.6769 1.70555 16.3204 1.10956 13.2816C1 12.723 1 12.0944 1 10.8373L1 9.16274C1 7.90561 1 7.27704 1.10956 6.71845C1.70555 3.67963 4.18961 2.32314 7.05112 1.516C8.24014 1.18062 8.83465 1.01293 9.31564 1.00116C11.3831 0.95058 12.9264 2.52305 13 4.37499" stroke="#2A353D" stroke-width="1.5" stroke-linecap="round"/>
<path d="M8 10H19M8 10C8 9.29977 9.9943 7.99153 10.5 7.5M8 10C8 10.7002 9.9943 12.0085 10.5 12.5" stroke="#2A353D" stroke-width="1.5" stroke-linecap="round" stroke-linejoin="round"/>
</svg>
