<svg id="Layer_1" data-name="Layer 1" xmlns="http://www.w3.org/2000/svg" xmlns:xlink="http://www.w3.org/1999/xlink" viewBox="0 0 360 450"><defs><style>.cls-1{fill:none;}.cls-2{clip-path:url(#clip-path);}.cls-3,.cls-4{fill:#800;isolation:isolate;}.cls-3{opacity:0.6;}.cls-4{opacity:0.8;}.cls-5{fill:#c7deff;}.cls-6{fill:#f1a34f;}.cls-7{fill:#ffc48a;}.cls-8{fill:#bdd8ff;}.cls-9{fill:#afd1f9;}.cls-10{fill:#d39d71;}.cls-11{fill:#eab888;}.cls-12{fill:#a8d29f;}.cls-13{fill:#699ff0;}.cls-14{fill:#2b478b;}.cls-15{fill:#ee9849;}.cls-16{fill:#2a4e96;}.cls-17{fill:#c65447;}.cls-18{fill:#233862;}.cls-19{fill:#ffb27d;}.cls-20{fill:#e78b37;}.cls-21{fill:#e8945b;}.cls-22{fill:#263238;}.cls-23{fill:#d97f41;}</style><clipPath id="clip-path"><rect class="cls-1" width="360" height="450" rx="10"/></clipPath></defs><g class="cls-2"><g id="Mask_Group_9" data-name="Mask Group 9"><g id="Group_1864" data-name="Group 1864"><path id="Path_39063" data-name="Path 39063" class="cls-3" d="M485.06,450.59l0,.17c-.07.36-.13.73-.2,1.1l-161.93-.52-106-.35-71.62-.23-50.44-.17H93l-18.6-.06h-.68l-91.23-.29-4.05,0-98.85-.32-34.9-.12L-239,449.5l-81.91-.27-64-.21s-15-26.37-24.68-65.46c-.61-2.45-1.19-4.95-1.76-7.5-.31-1.42-.61-2.85-.91-4.3-6.16-30.18-8.47-66.4.91-103.38q1.51-5.94,3.43-11.9c.24-.74.48-1.48.73-2.22A190.52,190.52,0,0,1-396,227.79c.4-.79.82-1.58,1.24-2.37a194.63,194.63,0,0,1,11.54-18.95c.44-.64.88-1.28,1.34-1.92q3.76-5.34,8-10.61,6.19-7.69,13.5-15.18,10.11-10.37,20-18.84,4.08-3.53,8.15-6.72,3.47-2.76,6.93-5.3c.12-.1.26-.2.39-.29q8-5.88,15.84-10.67c1.07-.65,2.13-1.29,3.2-1.92,41.55-24.47,79.9-27.84,113.14-24.78,37.79,3.47,69,15.27,90.77,13.85,22-1.44,37.38-22.6,60.72-48.24q2.23-2.44,4.57-4.95c3.08-3.3,6.3-6.65,9.7-10l1.58-1.57c1.15-1.12,2.31-2.25,3.5-3.38l1.58-1.5Q-14.44,49-8,43.59C18.55,21.54,54.57.62,108.29-10.65a463.13,463.13,0,0,1,69.7-9q7.57-.39,15.19-.56c3-.06,6.09-.1,9.14-.1,7.54,0,15.08.17,22.57.55q4,.2,8,.48c32.43,2.27,63.68,8.41,90,19.38,24.33,10.12,44.5,24.36,57.62,43.48a91.49,91.49,0,0,1,14,32.26q.66,2.94,1.15,6a121,121,0,0,1,0,35.54A165.58,165.58,0,0,1,392.19,135c-.16.63-.32,1.28-.5,1.92q-1.21,4.59-2.71,9.35c-.16.53-.34,1.07-.51,1.6q-1.91,5.88-4.27,12l-.06.17a331.37,331.37,0,0,1-24.09,48.74c-43.11,72.86,13.3,85.56,64.28,114.46C463,345.22,498.6,376.51,485.06,450.59Z"/><path id="Path_39064" data-name="Path 39064" class="cls-4" d="M54,159.92v290.6H-17.55l-367.7.06s-1.07-1.76-1.27-2.14l-.1-.2-.3-.6a3,3,0,0,1-.16-.31c0-.08-.08-.16-.13-.24l-.1-.2c-.6-1.18-1.42-2.85-2.41-4.95-.09-.2-.18-.4-.28-.6-.52-1.11-1.08-2.34-1.67-3.68l-.36-.8c-.06-.15-.13-.3-.2-.45l-.24-.55c-.15-.33-.29-.67-.44-1-.07-.17-.15-.34-.22-.52-.54-1.24-1.09-2.55-1.66-3.94-.08-.18-.15-.36-.22-.55-2.32-5.65-4.9-12.42-7.44-20.11,0-.11-.08-.22-.11-.33s-.1-.31-.16-.47c-.45-1.37-.89-2.76-1.34-4.19l-.42-1.34q-1.53-4.95-3-10.31c-.14-.5-.27-1-.4-1.5-.5-1.88-1-3.81-1.48-5.77-.07-.29-.14-.59-.22-.88l-.33-1.4q-.89-3.69-1.69-7.51-.45-2.13-.87-4.29-1.32-6.74-2.37-13.85a256.12,256.12,0,0,1-2.72-43.83c0-1.39.08-2.78.14-4.17.05-1.07.1-2.14.17-3.21l.06-1.09c.07-1.21.16-2.42.26-3.63,0-.47.07-.93.12-1.4q.32-3.88.8-7.81c0-.37.09-.73.13-1.1.13-1.07.28-2.15.43-3.22q.36-2.54.78-5.07c.15-.91.31-1.82.47-2.74a1.55,1.55,0,0,0,0-.21c.06-.34.13-.7.2-1,.44-2.38.93-4.76,1.46-7.16.28-1.28.58-2.57.9-3.85q1.45-6,3.29-11.9c.23-.74.46-1.48.7-2.22A194.47,194.47,0,0,1-397,228.16c.46-.92.92-1.84,1.39-2.76q1.8-3.51,3.76-7,3.39-6,7.3-11.94l1.29-1.92q3.63-5.34,7.71-10.61,6-7.69,13-15.18,9.7-10.37,19.24-18.84Z"/><path id="Path_39065" data-name="Path 39065" class="cls-4" d="M485.06,450.59l0,.17H74.36V160.08H384.14a331.37,331.37,0,0,1-24.09,48.74c-43.11,72.87,13.3,85.56,64.28,114.46C463,345.22,498.6,376.51,485.06,450.59Z"/><g id="Group_1660" data-name="Group 1660"><path id="Path_39066" data-name="Path 39066" class="cls-5" d="M41.28,258.39a4.09,4.09,0,0,1-4.09,4.08H-93v-8.16h30.82V232.39l5-5v-2.1h5.85l.21,2.34,5.13,5V254.3h11.59V232.39l5.05-5v-2.1h5.85l.22,2.34,5.13,5V254.3h7.65V232.39l5-5v-2.1H.4l.22,2.34,5.13,5V254.3h7.7V232.39l5.05-5v-2.1h5.84l.22,2.34,5.13,5V254.3h7.5a4.1,4.1,0,0,1,4.09,4.09Z"/><path id="Path_39067" data-name="Path 39067" class="cls-5" d="M41.28,310.83a4.11,4.11,0,0,1-4.09,4.09H-93v-8.17h37.87V291.88h18.39v14.87H-32V291.88h18.39v14.87h3.94V291.88H8.69v14.87h4.76V291.88h18.4v14.87h5.34a4.11,4.11,0,0,1,4.09,4.08Z"/><path id="Path_39068" data-name="Path 39068" class="cls-5" d="M41.28,363.27a4.1,4.1,0,0,1-4.09,4.09H-93v-8.17h23.39A7.37,7.37,0,0,1-77,352.52l-1.76,1.24v-4.47l1.78,1.71a7.38,7.38,0,0,1,7.3-6.51h14.87a7.37,7.37,0,0,1,7.25,6.18l1.44-1.38v4.47l-1.4-1a7.39,7.39,0,0,1-7.29,6.42h21.53a7.38,7.38,0,0,1-7.32-6.67l-1.76,1.24v-4.47l1.78,1.71a7.38,7.38,0,0,1,7.3-6.51h14.87a7.37,7.37,0,0,1,7.25,6.18l1.44-1.38v4.47l-1.4-1a7.39,7.39,0,0,1-7.29,6.42H5.83a7.39,7.39,0,0,1-7.32-6.67l-1.76,1.24v-4.47L-1.47,351a7.38,7.38,0,0,1,7.3-6.51H20.7A7.37,7.37,0,0,1,28,350.67l1.43-1.38v4.47l-1.4-1a7.37,7.37,0,0,1-7.28,6.42H37.2a4.08,4.08,0,0,1,4.08,4.08Z"/><path id="Path_39069" data-name="Path 39069" class="cls-5" d="M41.28,415.72a4.1,4.1,0,0,1-4.09,4.08H-93v-8.17H-59.2V392.21a6.73,6.73,0,0,1,4-6.16.6.6,0,0,1-.27-.5.62.62,0,0,1,.62-.61h4.47a.61.61,0,0,1,.61.62.61.61,0,0,1-.2.45,6.5,6.5,0,0,1,4,6v19.65h5V392.22a6.72,6.72,0,0,1,4-6.16.61.61,0,0,1-.27-.5.62.62,0,0,1,.62-.62h4.47a.61.61,0,0,1,.61.62.61.61,0,0,1-.2.45,6.48,6.48,0,0,1,4,6v19.64h5.09V392.22a6.75,6.75,0,0,1,4-6.16.61.61,0,0,1-.26-.5.62.62,0,0,1,.61-.62h4.47a.62.62,0,0,1,.62.62.59.59,0,0,1-.2.45,6.51,6.51,0,0,1,4,6v19.64h5.14V392.22a6.73,6.73,0,0,1,4-6.16.6.6,0,0,1-.27-.5A.61.61,0,0,1,.06,385H4.53a.62.62,0,0,1,.62.61.64.64,0,0,1-.21.46,6.49,6.49,0,0,1,4,6v19.64h4.81V392.23a6.73,6.73,0,0,1,4-6.16.63.63,0,0,1-.26-.5.61.61,0,0,1,.61-.62h4.47A.62.62,0,0,1,23,386a6.51,6.51,0,0,1,4,6v19.64H37.19a4.08,4.08,0,0,1,4.08,4.08Z"/><path id="Path_39070" data-name="Path 39070" class="cls-5" d="M13.72,182.44a6.71,6.71,0,0,1,4-6.15.62.62,0,0,1,.36-1.12h4.46a.61.61,0,0,1,.62.61.63.63,0,0,1-.2.46,6.49,6.49,0,0,1,4,6v19.64H13.72Z"/><path id="Path_39071" data-name="Path 39071" class="cls-5" d="M-4.32,182.44a6.71,6.71,0,0,1,4-6.15.62.62,0,0,1-.16-.86.64.64,0,0,1,.51-.26H4.53a.61.61,0,0,1,.61.61.59.59,0,0,1-.2.46,6.48,6.48,0,0,1,4,6v19.64H-4.32Z"/></g><g id="Group_1662" data-name="Group 1662"><rect id="Rectangle_143069" data-name="Rectangle 143069" class="cls-4" x="159.67" y="9.16" width="5.09" height="74.03" rx="2.54"/><path id="Path_39084" data-name="Path 39084" class="cls-6" d="M160.89,69.67c-18.53,0-33.55,15.88-33.55,35.48h67.1C194.44,85.55,179.42,69.67,160.89,69.67Z"/><path id="Path_39085" data-name="Path 39085" class="cls-7" d="M163.56,70.1a13.79,13.79,0,0,0-2.94-.32c-12.07,0-21.86,15.84-21.86,35.37h5.89C144.65,87.23,152.89,72.43,163.56,70.1Z"/></g><g id="Group_1663" data-name="Group 1663"><path id="Path_39086" data-name="Path 39086" class="cls-4" d="M11.54,32.64V80.83A2.39,2.39,0,0,1,9.17,83.2H8.82a2.38,2.38,0,0,1-2.37-2.37V37.59L8,36Q9.75,34.33,11.54,32.64Z"/><path id="Path_39087" data-name="Path 39087" class="cls-6" d="M7.67,69.67c-18.53,0-33.55,15.88-33.55,35.48h67.1C41.22,85.55,26.2,69.67,7.67,69.67Z"/><path id="Path_39088" data-name="Path 39088" class="cls-7" d="M10.34,70.1a13.79,13.79,0,0,0-2.94-.32c-12.08,0-21.86,15.84-21.86,35.37h5.89C-8.57,87.23-.34,72.43,10.34,70.1Z"/></g><g id="Group_1664" data-name="Group 1664"><path id="Rectangle_143070" data-name="Rectangle 143070" class="cls-4" d="M318.71,9.16h0a2.55,2.55,0,0,1,2.55,2.54h0v69a2.55,2.55,0,0,1-2.55,2.55h0a2.55,2.55,0,0,1-2.54-2.55h0V11.7A2.54,2.54,0,0,1,318.71,9.16Z"/><path id="Path_39089" data-name="Path 39089" class="cls-6" d="M317.39,69.67c-18.53,0-33.55,15.88-33.55,35.48h67.1C350.94,85.55,335.92,69.67,317.39,69.67Z"/><path id="Path_39090" data-name="Path 39090" class="cls-7" d="M320.06,70.1a13.86,13.86,0,0,0-2.94-.32c-12.08,0-21.87,15.84-21.87,35.37h5.9C301.15,87.23,309.38,72.43,320.06,70.1Z"/></g><path id="Path_39092" data-name="Path 39092" class="cls-4" d="M380.51,43.6H-8c26.53-22,62.55-43,116.27-54.24a463.12,463.12,0,0,1,69.7-9q7.58-.4,15.19-.57c3-.06,6.09-.1,9.14-.1,7.54,0,15.08.17,22.57.55,2.66.14,5.32.29,8,.48,32.43,2.27,63.68,8.41,90,19.38C347.22,10.25,367.39,24.48,380.51,43.6Z"/><path id="Path_39093" data-name="Path 39093" class="cls-8" d="M359.33,210H114.23a4.09,4.09,0,0,1,0-8.17H364.07Z"/><path id="Path_39094" data-name="Path 39094" class="cls-8" d="M345.72,262.47H114.24a4.08,4.08,0,1,1,0-8.16H344.75A41.53,41.53,0,0,0,345.72,262.47Z"/><path id="Path_39095" data-name="Path 39095" class="cls-8" d="M408.78,314.92H114.24a4.09,4.09,0,0,1,0-8.17H392.92C398.06,309.44,403.39,312.13,408.78,314.92Z"/><path id="Path_39096" data-name="Path 39096" class="cls-8" d="M474.27,367.36h-360a4.09,4.09,0,0,1,0-8.17H468.67A92.9,92.9,0,0,1,474.27,367.36Z"/><path id="Path_39097" data-name="Path 39097" class="cls-8" d="M488,419.8H114.24a4.09,4.09,0,0,1,0-8.17H487.7Q488,415.6,488,419.8Z"/><path id="Path_39098" data-name="Path 39098" class="cls-8" d="M237.9,450.22h0a4,4,0,0,1-4-4V175.06a4,4,0,0,1,4-4h0a4,4,0,0,1,4,4V446.25A4,4,0,0,1,237.9,450.22Z"/><path id="Path_39574" data-name="Path 39574" class="cls-8" d="M133.69,176.29a.62.62,0,0,0,.16-.86.64.64,0,0,0-.51-.26h-4.47a.61.61,0,0,0-.62.61.65.65,0,0,0,.2.46,6.49,6.49,0,0,0-4,6v19.64h13.23V182.44A6.71,6.71,0,0,0,133.69,176.29Z"/><path id="Path_39575" data-name="Path 39575" class="cls-8" d="M151.73,176.29a.63.63,0,0,0,.15-.86.62.62,0,0,0-.51-.26H146.9a.61.61,0,0,0-.61.61.63.63,0,0,0,.2.46,6.49,6.49,0,0,0-4,6v19.64h13.22V182.44A6.71,6.71,0,0,0,151.73,176.29Z"/><path id="Path_39576" data-name="Path 39576" class="cls-8" d="M170.1,176.29a.63.63,0,0,0,.15-.86.64.64,0,0,0-.51-.26h-4.47a.61.61,0,0,0-.61.61.63.63,0,0,0,.2.46,6.47,6.47,0,0,0-4,6v19.64h13.22V182.44A6.71,6.71,0,0,0,170.1,176.29Z"/><path id="Path_39577" data-name="Path 39577" class="cls-8" d="M188.41,176.29a.63.63,0,0,0,.15-.86.62.62,0,0,0-.51-.26h-4.47a.61.61,0,0,0-.61.61.63.63,0,0,0,.2.46,6.47,6.47,0,0,0-4,6v19.64h13.22V182.44A6.71,6.71,0,0,0,188.41,176.29Z"/><path id="Path_39578" data-name="Path 39578" class="cls-8" d="M206.61,176.29a.62.62,0,0,0-.36-1.12h-4.46a.61.61,0,0,0-.62.61.63.63,0,0,0,.2.46,6.49,6.49,0,0,0-4,6v19.64h13.22V182.44A6.71,6.71,0,0,0,206.61,176.29Z"/><path id="Path_39579" data-name="Path 39579" class="cls-8" d="M133.69,386.06a.62.62,0,0,0-.35-1.12h-4.47a.61.61,0,0,0-.62.61.59.59,0,0,0,.2.45,6.51,6.51,0,0,0-4,6v19.64h13.23V392.21A6.71,6.71,0,0,0,133.69,386.06Z"/><path id="Path_39580" data-name="Path 39580" class="cls-8" d="M151.73,386.06a.63.63,0,0,0,.15-.86.64.64,0,0,0-.51-.26H146.9a.61.61,0,0,0-.61.61.59.59,0,0,0,.2.45,6.51,6.51,0,0,0-4,6v19.64h13.22V392.21A6.71,6.71,0,0,0,151.73,386.06Z"/><path id="Path_39581" data-name="Path 39581" class="cls-8" d="M170.1,386.06a.63.63,0,0,0,.15-.86.64.64,0,0,0-.51-.26h-4.47a.61.61,0,0,0-.61.61.59.59,0,0,0,.2.45,6.49,6.49,0,0,0-4,6v19.64h13.22V392.21A6.71,6.71,0,0,0,170.1,386.06Z"/><path id="Path_39582" data-name="Path 39582" class="cls-8" d="M188.41,386.06a.63.63,0,0,0,.15-.86.64.64,0,0,0-.51-.26h-4.47a.61.61,0,0,0-.61.61.59.59,0,0,0,.2.45,6.49,6.49,0,0,0-4,6v19.64h13.22V392.21A6.71,6.71,0,0,0,188.41,386.06Z"/><path id="Path_39583" data-name="Path 39583" class="cls-8" d="M206.61,386.06a.62.62,0,0,0-.36-1.12h-4.46a.61.61,0,0,0-.62.61.59.59,0,0,0,.2.45,6.51,6.51,0,0,0-4,6v19.64h13.22V392.21A6.71,6.71,0,0,0,206.61,386.06Z"/><g id="Group_1832" data-name="Group 1832"><path id="Path_39584" data-name="Path 39584" class="cls-9" d="M128.25,225.25h4.69v2.1L138,232.4v21.91h-4.5L128,227.82Z"/><path id="Path_39585" data-name="Path 39585" class="cls-8" d="M128.25,227.59v-2.34h-1.16l-.22,2.34-5.13,5v21.67h11.75V232.64Z"/></g><g id="Group_1833" data-name="Group 1833"><path id="Path_39586" data-name="Path 39586" class="cls-9" d="M152.19,225.25h4.69v2.1l5,5.05v21.91h-4.5l-5.48-26.49Z"/><path id="Path_39587" data-name="Path 39587" class="cls-8" d="M152.19,227.59v-2.34H151l-.22,2.34-5.13,5v21.67h11.75V232.64Z"/></g><g id="Group_1834" data-name="Group 1834"><path id="Path_39588" data-name="Path 39588" class="cls-9" d="M176.08,225.25h4.69v2.1l5,5.05v21.91h-4.5l-5.49-26.49Z"/><path id="Path_39589" data-name="Path 39589" class="cls-8" d="M176.08,227.59v-2.34h-1.16l-.22,2.34-5.13,5v21.67h11.75V232.64Z"/></g><g id="Group_1837" data-name="Group 1837"><path id="Path_39594" data-name="Path 39594" class="cls-9" d="M203.92,225.25h4.69v2.1l5,5.05v21.91h-4.5l-5.48-26.49Z"/><path id="Path_39595" data-name="Path 39595" class="cls-8" d="M203.92,227.59v-2.34h-1.16l-.22,2.34-5.13,5v21.67h11.75V232.64Z"/></g><rect id="Rectangle_143077" data-name="Rectangle 143077" class="cls-8" x="119.59" y="291.88" width="18.4" height="14.87"/><rect id="Rectangle_143078" data-name="Rectangle 143078" class="cls-8" x="142.75" y="291.88" width="18.39" height="14.87"/><rect id="Rectangle_143079" data-name="Rectangle 143079" class="cls-8" x="165.08" y="291.88" width="18.39" height="14.87"/><rect id="Rectangle_143080" data-name="Rectangle 143080" class="cls-8" x="188.21" y="291.88" width="18.4" height="14.87"/><g id="Group_1838" data-name="Group 1838"><path id="Path_39596" data-name="Path 39596" class="cls-8" d="M145.61,359.19H130.74a7.36,7.36,0,0,1-7.34-7.35h0a7.36,7.36,0,0,1,7.34-7.34h14.87a7.37,7.37,0,0,1,7.35,7.34h0A7.37,7.37,0,0,1,145.61,359.19Z"/><path id="Path_39597" data-name="Path 39597" class="cls-8" d="M122.05,349.29v4.47l2.68-1.89Z"/><path id="Path_39598" data-name="Path 39598" class="cls-8" d="M154.68,349.29v4.47L152,351.87Z"/></g><g id="Group_1839" data-name="Group 1839"><path id="Path_39599" data-name="Path 39599" class="cls-8" d="M184.7,359.19H169.83a7.36,7.36,0,0,1-7.35-7.35h0a7.37,7.37,0,0,1,7.35-7.34H184.7a7.36,7.36,0,0,1,7.34,7.34h0A7.36,7.36,0,0,1,184.7,359.19Z"/><path id="Path_39600" data-name="Path 39600" class="cls-8" d="M161.14,349.29v4.47l2.68-1.89Z"/><path id="Path_39601" data-name="Path 39601" class="cls-8" d="M193.77,349.29v4.47l-2.68-1.89Z"/></g><g id="Group_1840" data-name="Group 1840"><path id="Path_39602" data-name="Path 39602" class="cls-8" d="M221.09,359.19H206.22a7.37,7.37,0,0,1-7.35-7.35h0a7.37,7.37,0,0,1,7.35-7.34h14.87a7.37,7.37,0,0,1,7.35,7.34h0A7.37,7.37,0,0,1,221.09,359.19Z"/><path id="Path_39603" data-name="Path 39603" class="cls-8" d="M197.53,349.29v4.47l2.68-1.89Z"/><path id="Path_39604" data-name="Path 39604" class="cls-8" d="M230.16,349.29v4.47l-2.68-1.89Z"/></g><path id="Path_39605" data-name="Path 39605" class="cls-8" d="M267.6,176.29a.62.62,0,0,0,.16-.86.64.64,0,0,0-.51-.26h-4.47a.61.61,0,0,0-.62.61.67.67,0,0,0,.2.46,6.49,6.49,0,0,0-4,6v19.64h13.23V182.44A6.71,6.71,0,0,0,267.6,176.29Z"/><path id="Path_39606" data-name="Path 39606" class="cls-8" d="M285.64,176.29a.62.62,0,0,0-.35-1.12h-4.47a.61.61,0,0,0-.62.61.63.63,0,0,0,.2.46,6.49,6.49,0,0,0-4,6v19.64h13.22V182.44A6.71,6.71,0,0,0,285.64,176.29Z"/><path id="Path_39607" data-name="Path 39607" class="cls-8" d="M304,176.29a.62.62,0,0,0,.16-.86.64.64,0,0,0-.51-.26h-4.47a.61.61,0,0,0-.61.61.63.63,0,0,0,.2.46,6.48,6.48,0,0,0-4,6v19.64H308V182.44A6.71,6.71,0,0,0,304,176.29Z"/><path id="Path_39608" data-name="Path 39608" class="cls-8" d="M322.32,176.29a.62.62,0,0,0-.36-1.12H317.5a.61.61,0,0,0-.62.61.63.63,0,0,0,.2.46,6.49,6.49,0,0,0-4,6v19.64h13.22V182.44A6.71,6.71,0,0,0,322.32,176.29Z"/><path id="Path_39609" data-name="Path 39609" class="cls-8" d="M340.52,176.29a.62.62,0,0,0-.35-1.12H335.7a.61.61,0,0,0-.62.61.63.63,0,0,0,.2.46,6.49,6.49,0,0,0-4,6v19.64h13.22V182.44A6.71,6.71,0,0,0,340.52,176.29Z"/><path id="Path_39610" data-name="Path 39610" class="cls-8" d="M267.6,386.06a.62.62,0,0,0-.35-1.12h-4.47a.61.61,0,0,0-.62.61.63.63,0,0,0,.2.45,6.51,6.51,0,0,0-4,6v19.64h13.23V392.21A6.71,6.71,0,0,0,267.6,386.06Z"/><path id="Path_39611" data-name="Path 39611" class="cls-8" d="M285.64,386.06a.62.62,0,0,0,.15-.86.61.61,0,0,0-.5-.26h-4.47a.61.61,0,0,0-.62.61.59.59,0,0,0,.2.45,6.51,6.51,0,0,0-4,6v19.64h13.22V392.21A6.71,6.71,0,0,0,285.64,386.06Z"/><path id="Path_39612" data-name="Path 39612" class="cls-8" d="M304,386.06a.62.62,0,0,0,.16-.86.64.64,0,0,0-.51-.26h-4.47a.61.61,0,0,0-.61.61.59.59,0,0,0,.2.45,6.5,6.5,0,0,0-4,6v19.64H308V392.21A6.71,6.71,0,0,0,304,386.06Z"/><path id="Path_39613" data-name="Path 39613" class="cls-8" d="M322.32,386.06a.62.62,0,0,0-.36-1.12H317.5a.61.61,0,0,0-.62.61.59.59,0,0,0,.2.45,6.51,6.51,0,0,0-4,6v19.64h13.22V392.21A6.71,6.71,0,0,0,322.32,386.06Z"/><path id="Path_39614" data-name="Path 39614" class="cls-8" d="M340.52,386.06a.62.62,0,0,0-.35-1.12H335.7a.61.61,0,0,0-.62.61.59.59,0,0,0,.2.45,6.51,6.51,0,0,0-4,6v19.64h13.22V392.21A6.71,6.71,0,0,0,340.52,386.06Z"/><g id="Group_1841" data-name="Group 1841"><path id="Path_39615" data-name="Path 39615" class="cls-9" d="M262.16,225.25h4.69v2.1l5,5.05v21.91h-4.5l-5.48-26.49Z"/><path id="Path_39616" data-name="Path 39616" class="cls-8" d="M262.16,227.59v-2.34H261l-.22,2.34-5.13,5v21.67H267.4V232.64Z"/></g><g id="Group_1842" data-name="Group 1842"><path id="Path_39617" data-name="Path 39617" class="cls-9" d="M286.1,225.25h4.69v2.1l5,5.05v21.91h-4.5l-5.49-26.49Z"/><path id="Path_39618" data-name="Path 39618" class="cls-8" d="M286.1,227.59v-2.34h-1.16l-.22,2.34-5.13,5v21.67h11.75V232.64Z"/></g><g id="Group_1843" data-name="Group 1843"><path id="Path_39620" data-name="Path 39620" class="cls-8" d="M362.93,384.92v-2.35h-1.15l-.22,2.35L356.43,390v21.66h11.74V390Z"/></g><g id="Group_1847" data-name="Group 1847"><path id="Path_39627" data-name="Path 39627" class="cls-9" d="M310,225.25h4.68v2.1l5.05,5.05v21.91h-4.5l-5.49-26.49Z"/><path id="Path_39628" data-name="Path 39628" class="cls-8" d="M310,227.59v-2.34h-1.16l-.22,2.34-5.13,5v21.67h11.75V232.64Z"/></g><rect id="Rectangle_143081" data-name="Rectangle 143081" class="cls-8" x="253.5" y="291.88" width="18.39" height="14.87"/><rect id="Rectangle_143082" data-name="Rectangle 143082" class="cls-8" x="276.66" y="291.88" width="18.39" height="14.87"/><rect id="Rectangle_143083" data-name="Rectangle 143083" class="cls-8" x="298.99" y="291.88" width="18.4" height="14.87"/><rect id="Rectangle_143084" data-name="Rectangle 143084" class="cls-8" x="322.12" y="291.88" width="18.39" height="14.87"/><g id="Group_1848" data-name="Group 1848"><path id="Path_39629" data-name="Path 39629" class="cls-8" d="M279.52,359.19H264.65a7.37,7.37,0,0,1-7.35-7.35h0a7.37,7.37,0,0,1,7.35-7.34h14.87a7.37,7.37,0,0,1,7.35,7.34h0A7.37,7.37,0,0,1,279.52,359.19Z"/><path id="Path_39630" data-name="Path 39630" class="cls-8" d="M256,349.29v4.47l2.69-1.89Z"/><path id="Path_39631" data-name="Path 39631" class="cls-8" d="M288.59,349.29v4.47l-2.68-1.89Z"/></g><g id="Group_1849" data-name="Group 1849"><path id="Path_39632" data-name="Path 39632" class="cls-8" d="M318.61,359.19H303.74a7.36,7.36,0,0,1-7.35-7.35h0a7.37,7.37,0,0,1,7.35-7.34h14.87a7.37,7.37,0,0,1,7.35,7.34h0A7.37,7.37,0,0,1,318.61,359.19Z"/><path id="Path_39633" data-name="Path 39633" class="cls-8" d="M295.05,349.29v4.47l2.68-1.89Z"/><path id="Path_39634" data-name="Path 39634" class="cls-8" d="M327.68,349.29v4.47L325,351.87Z"/></g><g id="Group_1850" data-name="Group 1850"><path id="Path_39635" data-name="Path 39635" class="cls-8" d="M355,359.19H340.13a7.37,7.37,0,0,1-7.35-7.35h0a7.37,7.37,0,0,1,7.35-7.34H355a7.37,7.37,0,0,1,7.35,7.34h0A7.37,7.37,0,0,1,355,359.19Z"/><path id="Path_39636" data-name="Path 39636" class="cls-8" d="M331.44,349.29v4.47l2.68-1.89Z"/></g><g id="Group_1859" data-name="Group 1859"><path id="Path_39638" data-name="Path 39638" class="cls-10" d="M112.64,342.18s-.75-7.95,2.19-11.26,8.07-5.55,10.8-3.44,5.76,11.3,5.61,12.71S112.64,342.18,112.64,342.18Z"/><path id="Path_39639" data-name="Path 39639" class="cls-11" d="M110.32,340.17l2.93,37.13,24.22-2.51-3.66-37Z"/><g id="Group_1851" data-name="Group 1851"><path id="Path_39640" data-name="Path 39640" class="cls-12" d="M96.31,326.78s16.41-41.42,31.11-40.93c0,0,6.4,2-.27,8.47S96.31,326.78,96.31,326.78Z"/><path id="Path_39641" data-name="Path 39641" class="cls-12" d="M97.18,327.49S124,306.2,129.92,310.77c0,0,3.34,2.23-.6,4.13S109.81,319.3,97.18,327.49Z"/><path id="Path_39642" data-name="Path 39642" class="cls-12" d="M95.06,324.71c.16-.24,10.1-23.14,6.18-23.23S95.06,324.71,95.06,324.71Z"/><path id="Path_39643" data-name="Path 39643" class="cls-11" d="M76,340.73c.09-.36,16.88-21.53,16.88-21.53s5.37,0,6.46,3.19,4.37,2.2,5.92,3.72L84.83,349.9Z"/></g><g id="Group_1853" data-name="Group 1853"><g id="Group_1852" data-name="Group 1852"><path id="Path_39644" data-name="Path 39644" class="cls-13" d="M145.74,381.17l-9.16-1.2a3.12,3.12,0,0,1-2.69-3.49h0l3.16-24.18a3.12,3.12,0,0,1,3.49-2.68h0l9.16,1.2a3.11,3.11,0,0,1,2.68,3.49l-3.15,24.17a3.12,3.12,0,0,1-3.49,2.69Z"/><path id="Path_39645" data-name="Path 39645" class="cls-13" d="M146.14,356.39l-3.58-.47a1.21,1.21,0,0,1-1.05-1.36l1.23-9.45a1.21,1.21,0,0,1,1.36-1.05l3.58.47a1.21,1.21,0,0,1,1,1.36h0l-1.23,9.45A1.22,1.22,0,0,1,146.14,356.39Z"/></g><rect id="Rectangle_143085" data-name="Rectangle 143085" class="cls-6" x="135.87" y="357.31" width="15.46" height="10.04" transform="translate(-234.28 457.8) rotate(-82.56)"/></g><g id="Group_1856" data-name="Group 1856"><g id="Group_1855" data-name="Group 1855"><g id="Group_1854" data-name="Group 1854"><path id="Path_39646" data-name="Path 39646" class="cls-13" d="M131.36,379l-12.83-.68a1.52,1.52,0,0,1-1.44-1.6h0l.22-4.06a1.51,1.51,0,0,1,1.6-1.43h0l12.83.68a1.5,1.5,0,0,1,1.43,1.59h0l-.21,4.05a1.53,1.53,0,0,1-1.6,1.44Z"/></g><path id="Path_39647" data-name="Path 39647" class="cls-13" d="M127.65,373.05l-4.81-.26a.56.56,0,0,1-.54-.6h0l.08-1.52a.57.57,0,0,1,.6-.54h0l4.82.26a.57.57,0,0,1,.54.6l-.09,1.52A.56.56,0,0,1,127.65,373.05Z"/></g><rect id="Rectangle_143086" data-name="Rectangle 143086" class="cls-6" x="123.62" y="367.17" width="3.03" height="15.89" transform="translate(-256.08 480.2) rotate(-86.96)"/></g><rect id="Rectangle_143087" data-name="Rectangle 143087" class="cls-13" x="36.88" y="303.05" width="46.53" height="65.51" transform="translate(-88.66 28.82) rotate(-15.71)"/><rect id="Rectangle_143088" data-name="Rectangle 143088" class="cls-13" x="80.34" y="346.74" width="32.86" height="26.87" transform="translate(-267.66 439.43) rotate(-87.23)"/><rect id="Rectangle_143089" data-name="Rectangle 143089" class="cls-13" x="69.06" y="362.58" width="6.34" height="18.01" transform="translate(-302.42 425.79) rotate(-87.23)"/><path id="Path_39648" data-name="Path 39648" class="cls-14" d="M168.93,423.53a13.53,13.53,0,1,0,13.52,13.53h0A13.52,13.52,0,0,0,168.93,423.53Z"/><path id="Path_39649" data-name="Path 39649" class="cls-15" d="M168.93,430.84a6.22,6.22,0,1,0,6.22,6.22,6.21,6.21,0,0,0-6.22-6.22Z"/><path id="Path_39650" data-name="Path 39650" class="cls-14" d="M61.06,423.53a13.53,13.53,0,1,0,13.52,13.53h0A13.52,13.52,0,0,0,61.06,423.53Z"/><path id="Path_39651" data-name="Path 39651" class="cls-15" d="M61.05,430.84a6.22,6.22,0,1,0,6.23,6.22,6.22,6.22,0,0,0-6.23-6.22Z"/><path id="Path_39652" data-name="Path 39652" class="cls-16" d="M195.87,279.55a2,2,0,0,0-2.87-.11h0l-17.31,16.07a2,2,0,0,0-.55.87l-2.2,6.91-145.3,6.89a2,2,0,0,0-1.93,2.13h0l3,61.14a2,2,0,0,0,1.88,1.92L149.86,384H150a2,2,0,0,0,1.93-1.41l24.41-76.71,0-.09,2.45-7.7,16.92-15.7A2,2,0,0,0,195.87,279.55Zm-40.6,79.26-13.34-.51,5.58-22.52,15.13-.13Zm-16.93-.65-15-.57,5.08-21.65,15.48-.13ZM118.6,377.69l3.9-16.61,15,.57-4.24,17.1Zm-17.34-1.26,3-16.05,14.68.56-3.87,16.5Zm-19.12-1.38,2.33-15.43,16.22.62-3,15.94Zm-16-1.16L67.31,359l13.63.52-2.32,15.31Zm-19.35-1.4.93-14.27,16,.61-1.12,14.81ZM31,336.77l14.67-.12-1.16,17.92-12.67-.48Zm18.2-.15,16.31-.14-1.42,18.84L48,354.71ZM67.3,312.37,65.75,333l-16.35.14,1.3-19.94Zm20.91-1L85,332.8l-15.69.13,1.56-20.73Zm21.75-1-4.14,22.27-17.29.15,3.27-21.56Zm21.06-1-5.42,23.1-16.2.14,4.17-22.42ZM88,336.29l17.17-.15-3.83,20.61L85,356.12ZM81.46,356l-13.88-.53,1.43-19,15.43-.13Zm27.29-19.87,16-.14-5,21.48-14.85-.57Zm20.47-3.69,5.45-23.25,16-.76-5.91,23.87Zm-82.06-19.1-1.29,19.8-15.07.13-.93-19.11ZM32,357.61l12.27.47-.92,14.16-10.68-.78Zm116.59,22.26L136.79,379l4.27-17.23,13.1.5Zm15.19-47.74-15.38.13,6-24,17.29-.82Z"/><g id="Group_1857" data-name="Group 1857"><path id="Path_39653" data-name="Path 39653" class="cls-17" d="M188.5,288.82a2.44,2.44,0,0,1-1.61-4.26l8.86-7.81a2.43,2.43,0,1,1,3.27,3.6l-.05,0-8.86,7.81A2.37,2.37,0,0,1,188.5,288.82Z"/></g><g id="Group_1858" data-name="Group 1858"><path id="Path_39654" data-name="Path 39654" class="cls-15" d="M30.71,375.78a2.43,2.43,0,0,1-2.43-2.31l-3-61.14a2.44,2.44,0,0,1,4.87-.24l3,61.14a2.44,2.44,0,0,1-2.31,2.55h-.12Z"/></g><path id="Path_39655" data-name="Path 39655" class="cls-16" d="M169.34,436.12l-2.73-16.38a2,2,0,0,0,1.94-2V395.53a2.06,2.06,0,0,0-.75-1.57l-16.5-13.52a2,2,0,0,0-2.57,3.14h0l15.76,12.91v19.23l-116.25,2.1-3.76-10.57a2,2,0,1,0-3.83,1.34v0l3.57,10.05-15.61,6.1a2,2,0,0,0,1.46,3.78h0l17-6.63,2.44-.05,10.92,15.68c.56.81,1.61.26,1.57-.82l-.65-15.07,93-1.68,13.76,16.84C168.6,437.4,169.47,436.91,169.34,436.12Z"/></g><g id="Group_1862" data-name="Group 1862"><g id="Group_1861" data-name="Group 1861"><g id="man"><g id="Group_1860" data-name="Group 1860"><path id="Path_39656" data-name="Path 39656" class="cls-18" d="M315.54,425.64s5.32,4.93,4.28,8.44-5.84,5.84-6.49,10.13-3.25,6.62-5.58,6.62H296.6s-1.71-3,2.44-3.93,5.72-5.94,5.46-10.61a82.78,82.78,0,0,1,.39-10.91l8.83-2.08Z"/><path id="Path_39657" data-name="Path 39657" class="cls-18" d="M250.23,439.09s1.3,10.39-1,11.56-30.25.77-30.25.77,0-3.5,4.8-4.28,13.24-3.63,14.67-10S250.23,439.09,250.23,439.09Z"/><path id="Path_39658" data-name="Path 39658" class="cls-14" d="M225,280.5s1.58,19.68,3.44,43.33c2.52,32.14,5.55,71.61,5.85,79.09.51,13,2.6,33.75,2.6,33.75s4.93,4.94,14.8,2.86c0,0,8.79-29.65,11.3-61l.12-1.55c2.34-31.94,6-99.19,6-99.19Z"/><path id="Path_39659" data-name="Path 39659" class="cls-18" d="M225,280.5s1.58,19.68,3.44,43.33L263,378.51l.12-1.55c2.33-31.94,6-99.19,6-99.19Z"/><path id="Path_39660" data-name="Path 39660" class="cls-14" d="M232.19,282.83s28.43,71.28,47.12,104.77,24.54,42.84,24.54,42.84,10.71-4.28,11.68-7.2c0,0-7.14-64.67-19.66-80.43-7.08-8.91-15.39-35.64-15.78-45S277.56,270,277.56,270Z"/></g><path id="Path_39661" data-name="Path 39661" class="cls-19" d="M204.68,263.6l-2.52,3.6A10,10,0,0,0,193.41,278s.43,4.08,3.13,2.9,1.47-1.11,5.31-2.68,6.55-4.78,6.43-7.83l1.25-3.18Z"/><path id="Path_39662" data-name="Path 39662" class="cls-19" d="M269.6,173s-19.22,9.47-30.33,6a26.71,26.71,0,0,1,7.5-6.12c-.27-1.59-.48-3-.65-4.34a70.57,70.57,0,0,1-.65-7.54l4.55-3.67,9.87-8a34.19,34.19,0,0,0,.5,7.14h0C262.42,167.59,269.6,173,269.6,173Z"/><path id="Path_39663" data-name="Path 39663" class="cls-20" d="M205.36,267.66a31.81,31.81,0,0,1-4.27-5.79s20.85-25.91,22.54-28.6S238,187.5,238,187.5L270,181s-26.72,55.15-31.15,61.87c-7.32,11.11-29.21,27.64-29.21,27.64A13.06,13.06,0,0,1,205.36,267.66Z"/><path id="Path_39664" data-name="Path 39664" class="cls-6" d="M223.76,282.14a1.79,1.79,0,0,0,1.17.44c4.17-.06,16.34,2.26,26.63,1.2,8.68-.83,16.36-3.4,24.61-7.1,1.1-.49,3.62-1.84,3.56-3.06s-.17-3.29-.34-5.73a307.81,307.81,0,0,1-.61-40.06c.18-3.15.27-6.27.29-9.34.08-22.9-4.46-43-13.58-49.86-.78-.55-5.57,1.78-10,4a18.18,18.18,0,0,1-12,1.45l-3.84,3.39c-4.68,4.34-9.79,10.24-12,19.2-1.89,7.62-3,21.36-3.62,35.6-.27,6.46-.5,13-.55,19.14v.23c-.06.61-.06,1.28-.06,1.89C223.25,269.34,223.48,281.91,223.76,282.14Z"/><path id="Path_39665" data-name="Path 39665" class="cls-20" d="M279.39,267.89a307.81,307.81,0,0,1-.61-40.06c.18-3.14.27-6.26.29-9.34-3.8-9.22-6.91-15.9-6.91-15.9h-9.58S255.55,250.56,279.39,267.89Z"/><path id="Path_39666" data-name="Path 39666" class="cls-19" d="M298,270.87l1.82,3.13s-3.56,7.55,4.89,10.37c0,0,3.63.91,3.94-1.6s-.22-1.53.3-5.09-.86-6.73-3.48-7.58l-2.08-2Z"/><path id="Path_39667" data-name="Path 39667" class="cls-6" d="M302.85,271.73a31.45,31.45,0,0,1-7.19.4s-10.24-31.64-11.56-34.53-30.42-37.1-30.42-37.1l12.13-30.34s31.47,52.58,34.67,60c5.28,12.2,7.11,39.58,7.11,39.58A13.21,13.21,0,0,1,302.85,271.73Z"/><path id="Path_39668" data-name="Path 39668" class="cls-21" d="M260.4,156.44h0c-.19.34-5.91,10.58-14.28,12a70.35,70.35,0,0,1-.65-7.54l4.55-3.67c2.72-1.56,5.16-2.58,6.08-2.38a12,12,0,0,1,4.3,1.57Z"/><path id="Path_39669" data-name="Path 39669" class="cls-19" d="M239.74,162.72s19.83,3.29,21.69-9.09,5.67-20.29-6.91-22.92-15.76,1.73-17.38,5.71S234.63,161.54,239.74,162.72Z"/><g id="Group_2434" data-name="Group 2434"><g id="Group_2430" data-name="Group 2430"><g id="Group_2146" data-name="Group 2146"><g id="Group_2145" data-name="Group 2145"><g id="Group_2144" data-name="Group 2144"><g id="Group_2143" data-name="Group 2143"><path id="Path_39793" data-name="Path 39793" class="cls-22" d="M246.27,145.25a1.15,1.15,0,0,0,.62,1.48,1.11,1.11,0,0,0,1.47-.52v0a1.16,1.16,0,0,0-.62-1.48,1.1,1.1,0,0,0-1.47.51Z"/></g></g></g></g></g><path id="Path_40271" data-name="Path 40271" class="cls-23" d="M242,147.11s-1.52,4.26-3.43,3.94.14,3.79,4.95,1.52C243.47,152.57,244.39,150,242,147.11Z"/><g id="Group_2431" data-name="Group 2431"><g id="Group_2172" data-name="Group 2172"><g id="Group_2171" data-name="Group 2171"><g id="Group_2170" data-name="Group 2170"><path id="Path_39798" data-name="Path 39798" d="M245,140.93c.05.36,1.29.48,2.66,1s2.43,1.14,2.68.89,0-.48-.4-.9a4.77,4.77,0,0,0-1.87-1.18,4.69,4.69,0,0,0-2.2-.24C245.31,140.57,245,140.77,245,140.93Z"/></g></g></g></g><g id="Group_2432" data-name="Group 2432"><g id="Group_2176" data-name="Group 2176"><g id="Group_2175" data-name="Group 2175"><g id="Group_2174" data-name="Group 2174"><path id="Path_39799" data-name="Path 39799" d="M236.65,143.38c.32.17,1-.44,1.9-.87s1.81-.6,1.87-.95c0-.17-.22-.37-.67-.46a3.07,3.07,0,0,0-3,1.47C236.5,143,236.51,143.3,236.65,143.38Z"/></g></g></g></g><g id="Group_2433" data-name="Group 2433"><g id="Group_2146-2" data-name="Group 2146-2"><g id="Group_2145-2" data-name="Group 2145-2"><g id="Group_2144-2" data-name="Group 2144-2"><g id="Group_2143-2" data-name="Group 2143-2"><path id="Path_39793-2" data-name="Path 39793-2" class="cls-22" d="M237.63,145.25a1.14,1.14,0,0,0,.62,1.48,1.09,1.09,0,0,0,1.46-.52v0a1.14,1.14,0,0,0-.62-1.48,1.09,1.09,0,0,0-1.46.51Z"/></g></g></g></g></g><path id="Path_40272" data-name="Path 40272" class="cls-22" d="M245.53,155.36c-.17-.1-.87,1.12-2.38,1.43s-2.71-.51-2.82-.34.15.39.68.7a3.38,3.38,0,0,0,2.31.36,3.13,3.13,0,0,0,1.92-1.24C245.57,155.78,245.61,155.4,245.53,155.36Z"/></g><path id="Union_8" data-name="Union 8" d="M258,142a2.82,2.82,0,0,0-.44-2.15,23.11,23.11,0,0,0-14.57-5,13.83,13.83,0,0,1-4,.55c-.64.15-1.3.34-2,.56-1,.34-9.51-3.55-5.13-9.87,3-4.31,9.67-1.46,9.67-1.46a3.81,3.81,0,0,1,3.83-3,4.7,4.7,0,0,1,4.14,2.9s2.93-2.53,5.79-1,1.92,3.85,1.92,3.85,4.3-.28,6.06,2.44a3.93,3.93,0,0,1,.79,2.1,7.5,7.5,0,0,1,1.69,1.73c2.07,4.83,2.55,11.17-.55,10.92a6.12,6.12,0,0,0-4.47,4.26l-2.57.61A25.55,25.55,0,0,1,258,142Z"/><ellipse id="Ellipse_288" data-name="Ellipse 288" class="cls-19" cx="263.35" cy="149.8" rx="5.4" ry="2.16" transform="translate(46.76 361.66) rotate(-74)"/></g></g></g></g></g></g></svg>