<?xml version="1.0" standalone="no"?>
<!DOCTYPE svg PUBLIC "-//W3C//DTD SVG 20010904//EN"
 "http://www.w3.org/TR/2001/REC-SVG-20010904/DTD/svg10.dtd">
<svg version="1.0" xmlns="http://www.w3.org/2000/svg"
 width="512.000000pt" height="512.000000pt" viewBox="0 0 512.000000 512.000000"
 preserveAspectRatio="xMidYMid meet">
<metadata>
Created by potrace 1.16, written by Peter Selinger 2001-2019
</metadata>
<g transform="translate(0.000000,512.000000) scale(0.100000,-0.100000)"
fill="#000000" stroke="none">
<path d="M407 5105 c-171 -48 -319 -185 -379 -350 -27 -74 -36 -242 -18 -324
39 -178 181 -340 355 -403 74 -27 242 -36 324 -18 178 39 340 181 403 355 27
74 36 242 18 324 -39 178 -181 339 -355 403 -75 27 -272 35 -348 13z"/>
<path d="M0 1840 l0 -1840 560 0 560 0 0 1840 0 1840 -560 0 -560 0 0 -1840z"/>
<path d="M1760 1840 l0 -1840 559 0 560 0 4 1153 c3 1029 6 1159 20 1222 57
239 211 336 537 336 326 0 480 -97 537 -336 14 -63 17 -193 20 -1222 l4 -1153
560 0 560 0 -4 1267 c-3 1154 -5 1279 -21 1388 -53 356 -155 589 -329 751 -93
87 -199 147 -341 195 -190 65 -262 74 -586 74 -253 0 -296 -3 -380 -21 -262
-59 -420 -168 -543 -375 l-37 -64 0 233 0 232 -560 0 -560 0 0 -1840z"/>
</g>
</svg>
