<?xml version="1.0" standalone="no"?>
<!DOCTYPE svg PUBLIC "-//W3C//DTD SVG 20010904//EN"
 "http://www.w3.org/TR/2001/REC-SVG-20010904/DTD/svg10.dtd">
<svg version="1.0" xmlns="http://www.w3.org/2000/svg"
 width="512.000000pt" height="512.000000pt" viewBox="0 0 512.000000 512.000000"
 preserveAspectRatio="xMidYMid meet">
<metadata>
Created by potrace 1.16, written by Peter Selinger 2001-2019
</metadata>
<g transform="translate(0.000000,512.000000) scale(0.100000,-0.100000)"
fill="#000000" stroke="none">
<path d="M2300 5104 c-308 -37 -587 -116 -845 -239 -839 -403 -1403 -1246
-1444 -2160 -24 -544 95 -1028 362 -1466 394 -649 1034 -1079 1792 -1206 159
-26 631 -26 790 0 550 92 1023 334 1410 722 388 387 630 860 722 1410 26 159
26 631 0 790 -92 550 -334 1023 -722 1410 -381 382 -838 619 -1380 716 -99 18
-166 22 -385 24 -146 2 -281 1 -300 -1z m525 -335 c434 -54 848 -237 1181
-522 234 -201 408 -425 549 -709 155 -312 228 -625 228 -978 0 -353 -73 -666
-228 -978 -224 -452 -565 -793 -1017 -1017 -312 -155 -625 -228 -978 -228
-353 0 -666 73 -978 228 -284 141 -508 315 -709 549 -286 334 -461 730 -524
1186 -15 110 -15 410 0 520 79 575 342 1065 765 1427 475 406 1103 598 1711
522z"/>
<path d="M2535 3607 c-98 -33 -188 -106 -230 -187 -29 -55 -44 -176 -45 -342
l0 -158 -110 0 -110 0 0 -165 0 -165 110 0 110 0 0 -550 0 -550 210 0 210 0 0
550 0 550 164 0 163 0 6 63 c4 34 9 108 13 165 l7 102 -177 0 -176 0 0 125 c0
150 10 183 65 209 43 21 142 24 219 6 27 -6 51 -8 54 -5 10 9 61 320 54 326
-32 31 -460 51 -537 26z"/>
</g>
</svg>
