<?xml version="1.0" standalone="no"?>
<!DOCTYPE svg PUBLIC "-//W3C//DTD SVG 20010904//EN"
 "http://www.w3.org/TR/2001/REC-SVG-20010904/DTD/svg10.dtd">
<svg version="1.0" xmlns="http://www.w3.org/2000/svg"
 width="750.000000pt" height="1000.000000pt" viewBox="0 0 750.000000 1000.000000"
 preserveAspectRatio="xMidYMid meet">
<metadata>
Created by potrace 1.16, written by Peter Selinger 2001-2019
</metadata>
<g transform="translate(0.000000,1000.000000) scale(0.100000,-0.100000)"
fill="#000000" stroke="none">
<path d="M6674 8813 c-139 -3 -164 -6 -175 -21 -11 -14 -11 -15 1 -4 16 14
310 18 310 4 0 -4 -28 -39 -62 -77 -34 -39 -343 -398 -687 -800 -343 -401
-681 -795 -750 -875 -68 -80 -199 -232 -290 -339 -91 -107 -202 -236 -246
-287 -44 -50 -168 -196 -275 -322 -107 -127 -200 -231 -207 -231 -6 -1 -107
137 -224 307 -117 169 -260 376 -318 460 -58 84 -151 218 -206 298 -241 347
-917 1327 -1084 1571 -52 76 -123 176 -156 223 l-62 85 -1121 3 c-654 1 -1122
-2 -1122 -7 0 -5 8 -8 17 -7 16 1 138 -170 743 -1049 249 -361 330 -479 480
-695 52 -74 123 -178 159 -231 36 -53 142 -206 235 -340 217 -312 330 -476
511 -739 32 -47 115 -166 183 -265 69 -99 148 -214 177 -255 28 -41 119 -172
200 -290 361 -521 355 -513 342 -529 -12 -16 -539 -632 -586 -686 -14 -17 -80
-93 -146 -170 -65 -77 -158 -185 -205 -240 -97 -112 -1397 -1629 -1469 -1714
-25 -30 -104 -122 -174 -203 l-129 -149 -169 3 c-107 2 -165 0 -158 -7 5 -5
75 -9 159 -8 83 1 150 -1 150 -4 0 -4 -7 -15 -17 -25 -16 -17 -5 -18 310 -18
l326 0 113 133 c194 228 538 630 572 667 17 19 70 80 117 135 166 195 625 732
768 899 249 289 462 538 514 601 28 33 55 65 61 70 6 6 61 69 121 140 146 173
145 172 153 159 4 -6 120 -173 257 -372 138 -199 273 -395 300 -434 28 -40
171 -248 320 -463 148 -214 382 -554 521 -755 139 -201 271 -392 294 -425 23
-33 77 -112 121 -175 l80 -115 -28 -6 c-30 -7 -22 -12 14 -9 13 1 27 -7 35
-19 13 -21 17 -21 603 -20 324 1 822 5 1106 8 l516 6 -128 185 c-87 126 -124
187 -116 193 7 4 -10 6 -38 5 -42 -3 -50 -6 -50 -23 0 -14 8 -21 25 -23 61 -7
70 -12 70 -40 0 -40 -17 -52 -72 -52 -62 0 -63 18 0 22 40 3 47 6 50 26 3 19
-1 22 -28 22 -44 0 -70 17 -70 44 0 28 16 43 49 48 23 3 23 4 -24 73 -98 144
-490 713 -539 782 -28 39 -114 163 -190 275 -77 112 -162 235 -189 273 -27 39
-161 232 -297 430 -137 198 -315 456 -397 574 -81 118 -195 282 -253 366 -126
182 -367 530 -570 825 -81 118 -145 220 -142 226 6 10 199 237 498 584 54 63
166 194 249 291 147 172 261 305 500 583 66 76 167 193 224 260 56 66 135 159
175 204 39 46 88 105 109 130 22 26 67 79 102 117 34 39 75 86 91 105 26 31
409 479 475 555 92 105 458 536 464 544 6 11 -352 12 -801 4z m-4495 -814
c315 -447 444 -632 766 -1089 149 -212 334 -475 411 -585 77 -110 228 -324
334 -475 106 -151 239 -340 295 -420 94 -134 200 -285 351 -500 33 -47 135
-191 225 -320 91 -129 226 -320 299 -425 74 -104 206 -293 295 -420 89 -126
206 -293 260 -370 54 -77 140 -198 190 -270 50 -71 167 -238 260 -370 340
-484 481 -684 604 -860 69 -99 130 -183 135 -187 6 -4 8 -9 6 -11 -3 -2 -230
-7 -506 -10 l-500 -7 -60 83 c-33 45 -92 127 -131 182 -38 55 -99 141 -134
190 -35 50 -91 130 -124 179 -33 48 -85 122 -116 164 -31 42 -136 192 -234
332 -99 140 -247 352 -330 470 -84 118 -169 240 -190 270 -21 30 -127 181
-235 335 -109 154 -323 460 -478 680 -154 220 -306 436 -337 480 -31 44 -92
130 -134 190 -43 61 -133 189 -201 285 -68 96 -148 211 -179 255 -79 111 -130
184 -390 555 -125 179 -299 426 -386 550 -190 270 -263 373 -324 460 -25 36
-80 115 -122 175 -43 61 -120 170 -171 243 -51 73 -146 208 -212 300 -122 171
-186 267 -186 277 0 3 228 4 507 3 l507 -3 235 -336z m4027 -6397 c39 -26 44
-93 8 -129 -21 -21 -32 -24 -62 -19 -20 3 -43 13 -49 23 -20 27 -16 90 7 113
20 20 74 27 96 12z"/>
</g>
</svg>
