<svg width="1920" height="154" viewBox="0 0 1920 154" fill="none" xmlns="http://www.w3.org/2000/svg">
<path d="M-27.7316 233.711C-28.5298 233.711 -29.2953 233.394 -29.8597 232.83C-30.4241 232.265 -30.7412 231.5 -30.7412 230.702C-30.7412 229.904 -30.4241 229.138 -29.8597 228.574C-29.2953 228.009 -28.5298 227.692 -27.7316 227.692H8.95419V157.584L-69.3594 60.4838C-69.6974 60.0366 -69.9106 59.5077 -69.9774 58.9511C-70.0442 58.3946 -69.9621 57.8303 -69.7396 57.3158C-69.4795 56.8133 -69.0897 56.3897 -68.6106 56.0889C-68.1315 55.788 -67.5806 55.621 -67.0151 55.6051H46.0201L74.5323 20.0598C75.041 19.466 75.761 19.0934 76.5396 19.0211C77.3182 18.9488 78.0944 19.1823 78.7038 19.6723C79.3132 20.1623 79.708 20.8703 79.8045 21.6463C79.901 22.4223 79.6918 23.2054 79.221 23.8298L53.8768 55.51H91.0694C91.6349 55.5259 92.1858 55.693 92.665 55.9938C93.1441 56.2947 93.5339 56.7183 93.7939 57.2207C94.0165 57.7352 94.0986 58.2995 94.0318 58.8561C93.965 59.4127 93.7517 59.9416 93.4137 60.3888L14.9734 157.584V227.692H51.7225C52.5207 227.692 53.2862 228.009 53.8507 228.574C54.4151 229.138 54.7321 229.904 54.7321 230.702C54.7321 231.5 54.4151 232.265 53.8507 232.83C53.2862 233.394 52.5207 233.711 51.7225 233.711H-27.7316ZM-5.55537 129.895L12.0589 151.723L63.0007 88.5525H48.1743C47.8706 86.497 47.3503 84.4793 46.622 82.5333H67.7527L84.6383 61.6243H48.9347L31.0987 83.8005L31.954 85.2894C33.6739 88.7724 34.3382 92.682 33.8654 96.5375C33.3926 100.393 31.8033 104.026 29.2929 106.99C27.4234 109.569 24.9912 111.688 22.1808 113.187C19.3704 114.685 16.2555 115.524 13.0726 115.639C11.4608 115.639 9.85831 115.394 8.32059 114.91L6.64152 114.34L-5.55537 129.895ZM-9.42037 125.112L2.0162 110.824L1.03413 109.303C-0.529068 106.758 -1.36202 103.831 -1.37358 100.844C-1.35545 95.8607 0.340897 91.0284 3.44183 87.1269C5.32115 84.5609 7.75629 82.453 10.5651 80.9608C13.374 79.4686 16.4838 78.6307 19.6621 78.5099C21.4473 78.5121 23.2176 78.834 24.8894 79.4603L26.6001 80.0939L41.268 61.7193H-60.6156L-43.7301 82.6283H-11.0044C-12.0997 84.5536 -13.0322 86.567 -13.7922 88.6475H-38.978L-9.42037 125.112ZM19.5671 84.4974C18.6477 84.4962 17.732 84.6133 16.8426 84.8459C13.4431 85.8349 10.436 87.858 8.23895 90.6342C6.04185 93.4104 4.76382 96.8018 4.58232 100.338C4.5666 100.527 4.5666 100.718 4.58232 100.908C4.52615 102.297 4.7815 103.68 5.32968 104.958C5.87787 106.235 6.70498 107.373 7.75034 108.289C9.24329 109.419 11.0743 110.011 12.9459 109.968C14.2851 109.957 15.613 109.722 16.8743 109.271C19.9361 108.136 22.6004 106.132 24.5409 103.506C26.382 101.17 27.5537 98.3774 27.9306 95.4271C28.2842 93.7476 28.1764 92.0037 27.6186 90.3805C27.0608 88.7574 26.0739 87.3156 24.7626 86.2082C23.2738 85.0672 21.4425 84.4642 19.5671 84.4974Z" fill="white"/>
<path d="M178.975 50.4349H212.809H213.126C213.711 50.1395 214.189 49.6703 214.496 49.0917C214.803 48.5131 214.923 47.8537 214.84 47.2041C214.756 46.5545 214.474 45.9467 214.031 45.4644C213.588 44.9821 213.006 44.6489 212.366 44.5107H178.975C178.499 44.3543 177.993 44.313 177.498 44.39C177.003 44.4671 176.534 44.6605 176.128 44.9542C175.722 45.2479 175.392 45.6336 175.164 46.0797C174.936 46.5258 174.818 47.0195 174.818 47.5203C174.818 48.0212 174.936 48.5149 175.164 48.961C175.392 49.4071 175.722 49.7927 176.128 50.0865C176.534 50.3802 177.003 50.5735 177.498 50.6506C177.993 50.7277 178.499 50.6864 178.975 50.53V50.4349Z" fill="white"/>
<path d="M328.442 124.503H320.586V120.607C320.646 116.598 319.398 112.68 317.032 109.444C314.665 106.208 311.308 103.832 307.47 102.676H307.28C303.352 101.599 303.13 98.9691 303.13 98.9691L299.328 64.9762H293.309L297.016 98.0504L297.237 99.571C297.237 99.571 297.618 105.907 302.528 107.048C303.977 107.526 305.386 108.12 306.742 108.822C309.068 109.809 311.053 111.459 312.45 113.565C313.847 115.672 314.594 118.142 314.598 120.67V124.567H252.347V120.67C252.362 118.562 252.888 116.489 253.882 114.629C254.875 112.769 256.305 111.179 258.049 109.994C258.611 109.615 259.193 109.266 259.791 108.948C261.254 108.151 262.793 107.504 264.385 107.016C268.282 106.065 269.232 101.757 269.486 100.078L272.242 64.9762H266.222L263.53 99.0641C263.214 100.005 262.649 100.843 261.897 101.49C261.144 102.137 260.23 102.568 259.253 102.739L258.904 102.897C255.17 104.116 251.924 106.499 249.643 109.698C247.363 112.897 246.167 116.742 246.232 120.67V124.567H233.75V120.67C233.811 116.662 232.563 112.743 230.196 109.507C227.83 106.272 224.473 103.896 220.635 102.739L220.254 102.581C216.326 101.503 216.326 98.9374 216.326 98.9374L212.524 64.9444H206.474L210.18 98.0186L210.37 99.5393C210.37 99.5393 210.75 105.875 215.661 107.016C217.115 107.482 218.525 108.076 219.874 108.79C222.198 109.779 224.178 111.43 225.57 113.537C226.961 115.643 227.702 118.113 227.699 120.638V124.535H165.606V120.638C165.61 117.922 166.488 115.279 168.109 113.098C168.968 111.863 170.041 110.79 171.277 109.93L172.988 108.885C174.459 108.085 176.009 107.438 177.613 106.952C179.047 106.424 180.293 105.483 181.195 104.249C182.097 103.015 182.614 101.542 182.682 100.015L185.47 64.9128H179.419L176.726 99.0007C176.435 99.8973 175.917 100.704 175.224 101.342C174.53 101.98 173.683 102.429 172.766 102.644H172.544C168.781 103.893 165.503 106.286 163.169 109.49C160.834 112.694 159.559 116.548 159.523 120.512V124.408H151.762C150.922 124.408 150.116 124.742 149.522 125.336C148.927 125.93 148.594 126.736 148.594 127.576V230.315C148.634 231.128 148.986 231.894 149.576 232.454C150.166 233.014 150.948 233.326 151.762 233.325H328.379C328.776 233.329 329.169 233.254 329.536 233.105C329.903 232.955 330.236 232.733 330.517 232.453C330.797 232.173 331.019 231.839 331.168 231.472C331.318 231.105 331.393 230.712 331.389 230.315V127.513C331.393 127.122 331.32 126.734 331.174 126.371C331.028 126.008 330.813 125.677 330.539 125.398C330.265 125.118 329.939 124.896 329.58 124.742C329.22 124.589 328.834 124.507 328.442 124.503ZM325.274 227.242H154.835V130.523H325.433L325.274 227.242Z" fill="white"/>
<path d="M265.715 50.4349H299.645H299.994C300.578 50.1395 301.057 49.6703 301.364 49.0917C301.67 48.5131 301.79 47.8537 301.707 47.2041C301.624 46.5545 301.341 45.9467 300.898 45.4644C300.455 44.9821 299.873 44.6489 299.233 44.5107H265.715C265.24 44.3543 264.734 44.313 264.239 44.39C263.744 44.4671 263.274 44.6605 262.869 44.9542C262.463 45.2479 262.133 45.6336 261.905 46.0797C261.677 46.5258 261.558 47.0195 261.558 47.5203C261.558 48.0212 261.677 48.5149 261.905 48.961C262.133 49.4071 262.463 49.7927 262.869 50.0865C263.274 50.3802 263.744 50.5735 264.239 50.6506C264.734 50.7277 265.24 50.6864 265.715 50.53V50.4349Z" fill="white"/>
<path d="M187.148 204.369H293.119C293.905 204.331 294.648 204.002 295.204 203.445C295.761 202.889 296.09 202.145 296.129 201.36V156.405C296.155 155.996 296.096 155.586 295.956 155.2C295.816 154.814 295.598 154.462 295.316 154.164C295.033 153.867 294.692 153.631 294.314 153.471C293.936 153.312 293.529 153.232 293.119 153.237H187.148C186.308 153.237 185.502 153.571 184.908 154.165C184.314 154.759 183.98 155.565 183.98 156.405V201.36C184.021 202.172 184.373 202.938 184.963 203.498C185.552 204.058 186.335 204.37 187.148 204.369ZM190.158 159.415H290.141V198.413H190.158V159.415Z" fill="white"/>
<path d="M560.289 234.592C554.462 234.551 548.886 232.218 544.766 228.098C540.646 223.977 538.313 218.401 538.271 212.575V83.7626C538.257 83.5517 538.257 83.34 538.271 83.129C538.937 77.2365 545.114 69.2848 556.234 59.9074L561.493 55.4088H552.749C551.951 55.4088 551.186 55.0917 550.621 54.5273C550.057 53.9629 549.74 53.1974 549.74 52.3992C549.74 51.601 550.057 50.8355 550.621 50.2711C551.186 49.7067 551.951 49.3895 552.749 49.3895H602.297L624.473 28.6073C625.028 28.0778 625.766 27.7828 626.533 27.7836C626.945 27.785 627.353 27.8732 627.73 28.0424C628.106 28.2116 628.443 28.458 628.718 28.7657C628.99 29.0532 629.202 29.3919 629.341 29.7621C629.48 30.1322 629.544 30.5263 629.529 30.9215C629.515 31.3167 629.421 31.7049 629.255 32.0637C629.088 32.4224 628.852 32.7444 628.56 33.0109L610.978 49.3895H637.462C637.938 49.2331 638.444 49.1918 638.939 49.2689C639.434 49.346 639.903 49.5393 640.309 49.833C640.715 50.1267 641.045 50.5124 641.273 50.9585C641.501 51.4046 641.619 51.8983 641.619 52.3992C641.619 52.9001 641.501 53.3938 641.273 53.8398C641.045 54.2859 640.715 54.6716 640.309 54.9653C639.903 55.2591 639.434 55.4524 638.939 55.5295C638.444 55.6066 637.938 55.5652 637.462 55.4088H628.718L634.009 59.9074C645.097 69.4115 651.275 77.2365 651.908 82.8756C651.935 83.1707 651.935 83.4675 651.908 83.7626V212.575C651.867 218.429 649.512 224.029 645.357 228.153C641.203 232.278 635.586 234.592 629.732 234.592H560.289ZM544.291 212.575C544.29 214.668 544.705 216.741 545.511 218.673C546.317 220.605 547.498 222.359 548.986 223.832C550.474 225.305 552.239 226.468 554.179 227.255C556.119 228.041 558.196 228.436 560.289 228.415H630.302C634.516 228.407 638.556 226.74 641.55 223.776C644.544 220.811 646.251 216.788 646.301 212.575V163.375L645.034 162.551H644.844C637.868 157.911 629.683 155.421 621.305 155.392C611.43 155.519 601.896 159.018 594.282 165.308C588.347 169.545 581.692 172.669 574.64 174.527V168.19C580.311 166.505 585.663 163.894 590.48 160.461C597.635 154.524 606.346 150.77 615.575 149.647C624.804 148.523 634.161 150.078 642.531 154.124L646.174 155.899V136.384L644.907 135.56H644.717C637.747 130.936 629.574 128.458 621.21 128.432C611.335 128.559 601.801 132.058 594.187 138.348C588.252 142.585 581.597 145.709 574.545 147.567V141.231C580.216 139.546 585.568 136.934 590.385 133.501C597.54 127.564 606.251 123.81 615.48 122.687C624.709 121.563 634.066 123.118 642.436 127.165L646.079 128.939V83.6359C646.079 77.4583 629.542 63.2655 619.119 55.789L618.454 55.3138H571.884L571.219 55.789C560.828 63.2655 544.291 77.4583 544.291 83.6359V141.452L546.191 141.928C550.22 142.959 554.357 143.501 558.515 143.543V149.563C554.758 149.511 551.014 149.108 547.332 148.359L544.164 147.725V168.381L546.065 168.856C550.096 169.871 554.232 170.413 558.388 170.471V176.491C554.631 176.439 550.887 176.036 547.205 175.287L544.037 174.653L544.291 212.575Z" fill="white"/>
<path d="M588.77 7.92006C590.957 7.92006 592.73 6.1471 592.73 3.96003C592.73 1.77297 590.957 0 588.77 0C586.583 0 584.81 1.77297 584.81 3.96003C584.81 6.1471 586.583 7.92006 588.77 7.92006Z" fill="white"/>
<path d="M574.514 25.6611C573.668 25.6611 572.841 25.4102 572.138 24.9403C571.434 24.4703 570.886 23.8024 570.562 23.0209C570.239 22.2395 570.154 21.3795 570.319 20.5499C570.484 19.7203 570.891 18.9582 571.489 18.3601C572.087 17.7619 572.85 17.3546 573.679 17.1896C574.509 17.0246 575.369 17.1093 576.15 17.433C576.932 17.7567 577.6 18.3048 578.07 19.0082C578.54 19.7115 578.79 20.5384 578.79 21.3842C578.79 21.9459 578.68 22.5021 578.465 23.0209C578.25 23.5398 577.935 24.0113 577.538 24.4084C577.141 24.8055 576.669 25.1206 576.15 25.3355C575.631 25.5504 575.075 25.6611 574.514 25.6611Z" fill="white"/>
<path d="M593.585 34.0563C596.21 34.0563 598.337 31.9287 598.337 29.3042C598.337 26.6797 596.21 24.5522 593.585 24.5522C590.961 24.5522 588.833 26.6797 588.833 29.3042C588.833 31.9287 590.961 34.0563 593.585 34.0563Z" fill="white"/>
<path d="M408.372 233.864C402.518 233.864 396.902 231.549 392.747 227.425C388.593 223.3 386.238 217.7 386.196 211.846V190.493C386.203 184.999 388.272 179.708 391.994 175.667L393.895 173.576L391.614 171.897C389.933 170.678 388.565 169.078 387.623 167.227C386.681 165.377 386.192 163.329 386.196 161.252V155.962C386.168 152.8 387.295 149.736 389.364 147.345L390.79 145.697L389.364 144.05C387.297 141.67 386.17 138.617 386.196 135.465V130.143C386.172 126.971 387.297 123.899 389.364 121.494L390.79 119.846L389.364 118.167C387.292 115.778 386.165 112.713 386.196 109.55V102.042C386.196 100.648 386.735 87.976 412.934 55.3137L416.102 51.1953H407.517C406.719 51.1953 405.953 50.8782 405.389 50.3138C404.825 49.7494 404.507 48.9839 404.507 48.1857C404.507 47.3875 404.825 46.6219 405.389 46.0575C405.953 45.4931 406.719 45.1761 407.517 45.1761H460.803C461.602 45.1761 462.367 45.4931 462.931 46.0575C463.496 46.6219 463.813 47.3875 463.813 48.1857C463.813 48.9839 463.496 49.7494 462.931 50.3138C462.367 50.8782 461.602 51.1953 460.803 51.1953H452.186L455.513 55.3137C481.712 87.9444 482.251 100.743 482.251 102.074V109.55C482.222 112.755 481.028 115.84 478.893 118.231L477.435 119.878L478.893 121.557C480.938 123.95 482.061 126.995 482.061 130.143V135.465C482.073 138.615 480.948 141.663 478.893 144.05L477.467 145.697L478.893 147.345C480.95 149.743 482.075 152.802 482.061 155.962V161.252C482.059 163.331 481.564 165.38 480.617 167.23C479.669 169.08 478.297 170.68 476.612 171.897L474.362 173.576L476.263 175.667C479.985 179.708 482.054 184.999 482.061 190.493V211.846C482.019 217.7 479.664 223.3 475.51 227.425C471.355 231.549 465.739 233.864 459.885 233.864H408.372ZM407.866 174.527C403.725 174.618 399.785 176.327 396.89 179.287C393.994 182.248 392.373 186.225 392.374 190.367V211.719C392.382 215.96 394.071 220.024 397.069 223.023C400.068 226.021 404.132 227.709 408.372 227.718H460.391C464.632 227.709 468.696 226.021 471.695 223.023C474.693 220.024 476.382 215.96 476.39 211.719V190.367C476.391 186.22 474.765 182.238 471.863 179.277C468.961 176.315 465.013 174.609 460.867 174.527H440.053C439.255 174.527 438.489 174.209 437.925 173.645C437.36 173.081 437.043 172.315 437.043 171.517C437.043 170.719 437.36 169.953 437.925 169.389C438.489 168.824 439.255 168.507 440.053 168.507H469.104C470.056 168.507 471 168.32 471.88 167.955C472.76 167.59 473.56 167.056 474.233 166.382C474.907 165.709 475.442 164.909 475.806 164.029C476.171 163.149 476.358 162.205 476.358 161.252V155.962C476.35 154.057 475.596 152.23 474.258 150.874C472.92 149.518 471.104 148.74 469.199 148.707H440.338C439.862 148.864 439.356 148.905 438.861 148.828C438.366 148.751 437.897 148.557 437.491 148.264C437.085 147.97 436.755 147.584 436.527 147.138C436.299 146.692 436.181 146.198 436.181 145.697C436.181 145.197 436.299 144.703 436.527 144.257C436.755 143.811 437.085 143.425 437.491 143.131C437.897 142.838 438.366 142.644 438.861 142.567C439.356 142.49 439.862 142.532 440.338 142.688H469.104C471.02 142.68 472.855 141.917 474.213 140.565C475.571 139.213 476.342 137.381 476.358 135.465V130.143C476.35 128.221 475.583 126.38 474.224 125.022C472.865 123.663 471.025 122.896 469.104 122.888H440.053C439.577 123.044 439.071 123.085 438.576 123.008C438.081 122.931 437.611 122.738 437.206 122.444C436.8 122.151 436.47 121.765 436.242 121.319C436.014 120.873 435.895 120.379 435.895 119.878C435.895 119.377 436.014 118.884 436.242 118.437C436.47 117.991 436.8 117.606 437.206 117.312C437.611 117.018 438.081 116.825 438.576 116.748C439.071 116.671 439.577 116.712 440.053 116.869H454.024H469.23C471.152 116.86 472.992 116.093 474.351 114.734C475.71 113.376 476.477 111.535 476.485 109.614V101.06L475.978 99.571C474.457 94.2804 468.533 79.6758 445.312 52.0506L444.551 51.1636H424.213L423.452 52.0506C393.451 87.6592 392.342 101.44 392.311 102.01V109.519C392.311 110.471 392.498 111.415 392.863 112.295C393.227 113.175 393.762 113.975 394.435 114.649C395.109 115.322 395.909 115.857 396.789 116.221C397.669 116.586 398.613 116.773 399.565 116.773H405.331H407.866H411.541C412.174 116.982 412.726 117.385 413.117 117.925C413.509 118.466 413.719 119.116 413.719 119.783C413.719 120.45 413.509 121.1 413.117 121.641C412.726 122.181 412.174 122.584 411.541 122.793H399.629C397.705 122.793 395.859 123.557 394.499 124.918C393.138 126.278 392.374 128.123 392.374 130.048V135.37C392.382 137.267 393.133 139.085 394.465 140.435C395.797 141.785 397.605 142.56 399.502 142.593H411.541C412.339 142.593 413.104 142.91 413.669 143.474C414.233 144.039 414.55 144.804 414.55 145.602C414.55 146.401 414.233 147.166 413.669 147.731C413.104 148.295 412.339 148.612 411.541 148.612H399.534C397.632 148.645 395.819 149.424 394.485 150.781C393.152 152.138 392.405 153.965 392.406 155.867V161.157C392.401 162.111 392.586 163.057 392.949 163.939C393.312 164.821 393.847 165.622 394.521 166.297C395.196 166.971 395.997 167.505 396.879 167.869C397.761 168.232 398.707 168.416 399.66 168.412H411.541C412.339 168.412 413.104 168.729 413.669 169.294C414.233 169.858 414.55 170.624 414.55 171.422C414.55 172.22 414.233 172.986 413.669 173.55C413.104 174.114 412.339 174.431 411.541 174.431H407.897L407.866 174.527Z" fill="white"/>
<path d="M447.054 30.6348V19.0082C447.046 18.1285 446.693 17.2872 446.071 16.6652C445.449 16.0431 444.607 15.69 443.728 15.6818H425.1C424.22 15.69 423.379 16.0431 422.757 16.6652C422.135 17.2872 421.781 18.1285 421.773 19.0082V30.6348H415.754V19.0082C415.754 16.5147 416.733 14.121 418.481 12.3432C420.23 10.5653 422.607 9.54565 425.1 9.50409H443.728C446.248 9.50409 448.666 10.5054 450.448 12.2878C452.23 14.0701 453.232 16.4875 453.232 19.0082V30.6348H447.054Z" fill="white"/>
<path d="M744.855 234.085C744.46 234.085 744.068 234.008 743.703 233.856C743.338 233.705 743.006 233.483 742.727 233.204C742.447 232.924 742.225 232.593 742.074 232.228C741.923 231.862 741.845 231.471 741.845 231.076C741.845 230.681 741.923 230.289 742.074 229.924C742.225 229.559 742.447 229.227 742.727 228.948C743.006 228.668 743.338 228.447 743.703 228.295C744.068 228.144 744.46 228.066 744.855 228.066H779.101V190.525L776.757 190.335C771.667 189.969 766.626 189.099 761.709 187.737H761.519H761.075L760.663 187.579C758.12 186.831 755.623 185.932 753.187 184.886L750.811 183.65C710.323 165.688 709.373 140.882 709.373 138.126C708.264 96.4981 731.391 51.0686 732.373 49.1678C732.62 48.6733 733 48.2573 733.469 47.9663C733.939 47.6754 734.481 47.521 735.034 47.5204H829.283C829.836 47.5173 830.379 47.6701 830.85 47.9615C831.321 48.2528 831.7 48.6709 831.944 49.1678C832.958 51.0686 856.052 96.3714 854.944 138.031C854.944 140.977 853.962 166.543 811.7 184.474L809.324 185.488C808.215 185.931 807.075 186.343 805.776 186.787L804.984 187.072L802.893 187.864H802.259H801.816C797.136 189.163 792.34 190.002 787.496 190.367L785.152 190.525V228.066H819.398C819.874 227.91 820.38 227.868 820.875 227.946C821.37 228.023 821.84 228.216 822.245 228.51C822.651 228.803 822.981 229.189 823.209 229.635C823.437 230.081 823.556 230.575 823.556 231.076C823.556 231.577 823.437 232.07 823.209 232.516C822.981 232.963 822.651 233.348 822.245 233.642C821.84 233.936 821.37 234.129 820.875 234.206C820.38 234.283 819.874 234.242 819.398 234.085H744.855ZM717.578 111.388C715.931 120.085 715.177 128.927 715.329 137.777C715.329 139.14 715.677 164.516 761.55 181.338C768.285 183.408 775.287 184.475 782.332 184.506C789.515 184.519 796.652 183.363 803.463 181.084C849.621 163.819 848.893 138.253 848.861 137.999C849.021 129.086 848.267 120.179 846.612 111.419L846.232 109.329H826.368L835.619 126.309C835.962 127.018 836.029 127.83 835.806 128.585C835.584 129.341 835.088 129.986 834.415 130.396L803.115 147.44C802.682 147.691 802.19 147.822 801.689 147.82C801.147 147.806 800.618 147.653 800.152 147.375C799.686 147.098 799.299 146.706 799.028 146.236L794.91 138.664L791.9 165.149C791.799 165.941 791.403 166.665 790.791 167.177C790.247 167.599 789.579 167.833 788.89 167.842H788.542L753.155 163.819C752.377 163.694 751.674 163.284 751.182 162.669C750.69 162.054 750.445 161.278 750.494 160.492L754.517 125.074C754.632 124.361 754.986 123.708 755.522 123.224C756.058 122.74 756.743 122.454 757.464 122.412H757.844L787.908 125.834L781.984 114.999C781.609 114.288 781.519 113.462 781.731 112.687C781.977 111.934 782.497 111.301 783.188 110.913L814.488 93.8369C814.921 93.5859 815.413 93.4547 815.914 93.4568C816.198 93.4262 816.485 93.4262 816.769 93.4568C817.534 93.6967 818.179 94.2174 818.575 94.9141L823.073 103.214H844.996L844.204 100.046C840.264 84.4578 834.854 69.2783 828.047 54.7118L827.35 53.2546H736.935L736.269 54.7118C729.447 69.2754 724.026 84.4554 720.081 100.046L719.32 103.214H770.009C768.666 104.997 767.647 107.002 766.999 109.138H718.053L717.578 111.388ZM756.83 158.116L786.261 161.443L789.619 132.012L760.156 128.685L756.83 158.116ZM788.7 114.683L802.893 140.692L828.902 126.531L814.71 100.49L788.7 114.683Z" fill="white"/>
<path d="M911.929 234.085C911.144 234.047 910.4 233.718 909.844 233.161C909.288 232.605 908.958 231.862 908.92 231.076V129.984C908.92 98.0187 932.268 86.7723 944.623 85.315C947.04 84.9161 949.245 83.6962 950.866 81.861C952.488 80.0259 953.427 77.6876 953.526 75.2406V66.4335H959.545V75.3357C959.388 79.1536 957.935 82.8041 955.423 85.6841C952.912 88.564 949.493 90.5013 945.732 91.1758C944.243 91.3659 914.939 95.2943 914.939 129.921V228.13H1026.45V129.921C1026.45 95.2943 997.118 91.3659 995.85 91.2075C992.049 90.5832 988.58 88.6661 986.029 85.7802C983.478 82.8942 982.001 79.2162 981.848 75.3674V66.4019H987.867V75.3041C987.972 77.7006 988.888 79.9903 990.465 81.7977C992.043 83.6051 994.187 84.823 996.547 85.2516C1009.22 86.7406 1032.47 97.9238 1032.47 129.952V231.044C1032.43 231.857 1032.08 232.622 1031.49 233.183C1030.9 233.743 1030.12 234.055 1029.3 234.054L911.929 234.085Z" fill="white"/>
<path d="M953.589 51.8289V9.34567C953.627 8.55987 953.957 7.81649 954.513 7.26018C955.069 6.70387 955.813 6.37446 956.598 6.33606H984.794C985.58 6.37446 986.323 6.70387 986.879 7.26018C987.436 7.81649 987.765 8.55987 987.804 9.34567V51.8289H953.589ZM959.608 47.457H981.784V12.387H959.608V47.457Z" fill="white"/>
<path d="M935.658 191.666C934.844 191.667 934.062 191.355 933.472 190.794C932.882 190.234 932.531 189.468 932.49 188.656V139.457C932.531 138.644 932.882 137.878 933.472 137.318C934.062 136.758 934.844 136.446 935.658 136.447H1005.73C1006.52 136.485 1007.26 136.815 1007.82 137.371C1008.38 137.927 1008.71 138.671 1008.74 139.457V188.656C1008.71 189.442 1008.38 190.185 1007.82 190.741C1007.26 191.298 1006.52 191.627 1005.73 191.666H935.658ZM938.667 185.646H1002.72V142.466H938.667V185.646Z" fill="white"/>
<path d="M1220.51 116.206V115.826V115.414C1220.55 114.928 1220.48 114.44 1220.29 113.988L1206.67 84.5258L1206.45 83.7972V56.0136C1206.41 55.2012 1206.06 54.4355 1205.47 53.8752C1204.88 53.315 1204.09 53.0029 1203.28 53.004H1156.46V32.697L1182.5 24.9353C1183.25 24.6743 1183.87 24.1424 1184.25 23.4445C1184.62 22.7466 1184.72 21.9335 1184.53 21.1653C1184.32 20.5621 1183.93 20.0366 1183.41 19.6578C1182.9 19.279 1182.28 19.0646 1181.64 19.0428C1181.36 18.9966 1181.07 18.9966 1180.79 19.0428L1152.72 27.5014C1152.28 27.6488 1151.88 27.8895 1151.55 28.2069C1151.22 28.5242 1150.96 28.9105 1150.79 29.3389C1150.55 29.7535 1150.43 30.224 1150.44 30.7011V97.5148C1146.6 97.8949 1143.82 99.0037 1143.82 100.334C1143.82 101.665 1148.06 103.281 1153.32 103.281C1158.58 103.281 1162.83 101.95 1162.83 100.334C1162.83 98.7186 1160.13 97.9265 1156.49 97.5464V86.2049H1200.84L1213.51 113.798H1093.35L1106.02 86.2049H1136.18V80.1857H1106.4V59.1816H1136.21V53.1624H1103.39C1102.61 53.2008 1101.86 53.5302 1101.31 54.0865C1100.75 54.6428 1100.42 55.3862 1100.38 56.172V84.114L1086.6 114.052C1086.4 114.511 1086.32 115.01 1086.35 115.509V115.889V116.269C1086.32 116.49 1086.32 116.714 1086.35 116.935V231.934C1086.39 232.72 1086.72 233.463 1087.27 234.02C1087.83 234.576 1088.57 234.905 1089.36 234.944H1217.6C1218.41 234.945 1219.2 234.633 1219.79 234.072C1220.38 233.512 1220.73 232.746 1220.77 231.934V116.935C1220.72 116.681 1220.63 116.436 1220.51 116.206ZM1200.46 80.249H1156.46V59.1816H1200.46V80.249ZM1214.59 228.861H1092.27V119.881H1214.59V228.861Z" fill="white"/>
<path d="M1367.37 47.2583C1389.61 66.0671 1394.92 93.9584 1396.53 102.381C1402.14 131.801 1393.96 154.596 1385.87 177.144C1378.51 197.653 1373.86 210.781 1360.27 220.201C1345.32 230.561 1321.67 235.174 1313.77 225.942C1303.75 214.225 1330.1 193.367 1322.88 164.993C1316.73 140.809 1294.31 143.164 1278.94 109.977C1274.72 100.857 1264.31 78.3899 1274.23 59.7474C1281.52 46.0566 1296.76 40.0803 1305.01 36.8722C1312.08 34.1201 1321.57 30.5632 1334.33 32.0171C1351.35 33.9538 1363.11 43.6532 1367.37 47.2583Z" stroke="white" stroke-width="7" stroke-miterlimit="10" stroke-linecap="round"/>
<path d="M1294.67 41.9687C1283.69 64.8976 1286.86 80.4124 1288.95 87.0808C1293.11 100.385 1303.17 111.067 1312.45 120.927C1322.62 131.726 1328.71 135.557 1335.39 147.504C1338.32 152.74 1341.66 158.716 1342.97 167.219C1344.77 178.941 1341.59 188.094 1335.48 204.998C1333.36 210.84 1330.06 219.15 1325.1 228.855" stroke="white" stroke-width="7" stroke-miterlimit="10" stroke-linecap="round"/>
<path d="M1373.83 109.028C1363.72 108.577 1353.62 108.132 1343.51 107.681" stroke="white" stroke-width="7" stroke-miterlimit="10" stroke-linecap="round"/>
<path d="M1373.49 137.204C1366 136.635 1358.52 136.061 1351.03 135.492" stroke="white" stroke-width="7" stroke-miterlimit="10" stroke-linecap="round"/>
<path d="M1321.8 63.9641C1321.8 72.186 1328.47 78.8512 1336.69 78.8512C1344.91 78.8512 1351.58 72.186 1351.58 63.9641C1351.58 55.7421 1344.91 49.0769 1336.69 49.0769C1328.47 49.0769 1321.8 55.7421 1321.8 63.9641Z" stroke="white" stroke-width="7" stroke-miterlimit="10" stroke-linecap="round"/>
<path d="M1454.69 222.448L1497.15 131.398" stroke="white" stroke-width="5" stroke-miterlimit="10" stroke-linecap="round" stroke-linejoin="round"/>
<path d="M1600.05 218.64L1557.59 127.59" stroke="white" stroke-width="5" stroke-miterlimit="10" stroke-linecap="round" stroke-linejoin="round"/>
<path d="M1618.1 57.8329C1618.1 107.37 1579.91 147.53 1532.79 147.53C1485.68 147.53 1447.48 107.37 1447.48 57.8329C1447.48 57.82 1447.48 57.807 1447.48 57.7941C1447.48 55.618 1449.27 53.8564 1451.45 53.8564H1614.14C1616.32 53.8564 1618.1 55.6115 1618.1 57.7941C1618.1 57.8005 1618.1 57.8135 1618.1 57.8329Z" stroke="white" stroke-width="5" stroke-miterlimit="10" stroke-linecap="round" stroke-linejoin="round"/>
<path d="M1462.24 66.0127C1482.35 66.1811 1502.46 66.3494 1522.56 66.5178" stroke="white" stroke-width="5" stroke-miterlimit="10" stroke-linecap="round" stroke-linejoin="round"/>
<path d="M1791.82 200.812C1792.76 201.043 1795.93 201.686 1799.07 204.089C1800.78 205.397 1804.24 208.045 1804.44 212.223C1804.66 216.786 1800.92 221.503 1797.2 221.856C1793.02 222.254 1790.51 216.994 1788.12 218.081C1787.27 218.466 1786.95 219.407 1785.69 226.745C1784.68 232.638 1784.61 233.657 1783.56 234.834C1781.67 236.943 1778.05 237.998 1775.38 236.816C1771.77 235.228 1771.21 230.176 1770.85 226.89C1770.29 221.883 1771.38 218.063 1771.69 216.714C1772.95 211.422 1771 208.231 1758.39 182.651C1754.24 174.218 1748.67 166.555 1744.01 158.389C1743.03 156.668 1741.11 153.264 1737.29 151.667C1732.67 149.734 1728.08 151.599 1725.92 152.178C1712.84 155.691 1695.55 136.991 1693.04 134.284C1677.06 116.993 1669.97 88.172 1680.71 66.4127C1682.59 62.6058 1687.66 52.3349 1699.08 47.2018C1711.26 41.7291 1723.08 45.5134 1728.53 47.2561C1750.34 54.2406 1760.35 73.5919 1762.51 78.0732C1771.51 96.7364 1768.15 114.594 1767.26 118.994C1764.92 130.514 1761.44 130.613 1760.57 140.563C1759.23 155.98 1766.49 168.42 1771.42 176.857C1776.68 185.861 1783.01 198.662 1791.82 200.812Z" stroke="white" stroke-width="5" stroke-miterlimit="10" stroke-linecap="round"/>
<path d="M1760.2 140.821C1757.57 148.272 1752.43 153.545 1746.76 154.161C1745.44 154.306 1743.4 154.274 1740.96 153.178" stroke="white" stroke-width="5" stroke-miterlimit="10" stroke-linecap="round"/>
<path d="M1720.36 55.6937C1723.57 56.083 1734.86 57.8574 1744.21 67.6168C1753.91 77.7337 1754.98 89.616 1755.16 92.7484" stroke="white" stroke-width="5" stroke-miterlimit="10" stroke-linecap="round"/>
<path d="M1889.83 51.2435C1891.4 45.4341 1887.85 39.5558 1882.44 38.2678C1876.76 36.9161 1871.66 41.2467 1870.25 45.6779C1869.53 47.9572 1869.86 50.0297 1870.16 51.2277C1867.92 47.3795 1864.01 45.1214 1860.42 45.6674C1855.04 46.489 1852.13 53.3319 1853.22 58.553C1854.23 63.3924 1858.48 65.8307 1859.28 66.2706" stroke="white" stroke-width="5" stroke-miterlimit="10" stroke-linecap="round" stroke-linejoin="round"/>
<path d="M1891.41 154.7C1882.97 139.704 1871.92 118.015 1861.72 90.2556C1860.97 88.7025 1857.17 80.3541 1860.65 70.4686C1862.85 64.2192 1867.43 58.8074 1873.89 55.7224C1878.9 53.8726 1886.25 52.1552 1893.67 54.6517C1904.38 58.2561 1908.98 68.5074 1917.65 85.5062C1929.14 108.028 1934.88 119.287 1941.03 128.573C1944.62 133.985 1959.22 155.474 1972.31 174.153C1973.81 176.299 1977.85 182.061 1979.33 190.452C1979.8 193.118 1980.77 199.023 1978.59 206.147C1976.32 213.562 1971.88 218.227 1969.65 220.294C1966.97 222.197 1962.73 224.625 1957.32 225.139C1932.44 227.508 1909.59 186.954 1891.41 154.7Z" stroke="white" stroke-width="5" stroke-miterlimit="10" stroke-linecap="round"/>
<path d="M1915.83 106.947C1913.07 107 1905.68 107.53 1898.87 112.847C1895.03 115.841 1892.79 119.25 1891.56 121.529" stroke="white" stroke-width="5" stroke-miterlimit="10" stroke-linecap="round" stroke-linejoin="round"/>
<path d="M1899.25 75.8328C1896.48 75.8858 1889.1 76.4158 1882.28 81.7323C1878.45 84.7271 1876.2 88.1354 1874.97 90.4146" stroke="white" stroke-width="5" stroke-miterlimit="10" stroke-linecap="round" stroke-linejoin="round"/>
<path d="M1935.93 141.459C1933.16 141.512 1925.78 142.042 1918.96 147.358C1915.13 150.353 1912.88 153.761 1911.65 156.041" stroke="white" stroke-width="5" stroke-miterlimit="10" stroke-linecap="round" stroke-linejoin="round"/>
</svg>
